<svg xmlns="http://www.w3.org/2000/svg" width="23.713" height="20.662" viewBox="0 0 23.713 20.662">
  <path id="business-time" d="M18.377,9.04a5.586,5.586,0,0,0-5.335,5.811,5.586,5.586,0,0,0,5.335,5.811,5.586,5.586,0,0,0,5.335-5.811A5.586,5.586,0,0,0,18.377,9.04ZM20.749,15.1a.378.378,0,0,1-.36.392H18.145a.378.378,0,0,1-.36-.392v-3.09a.378.378,0,0,1,.36-.392h.466a.378.378,0,0,1,.36.392v2.19h1.419a.378.378,0,0,1,.36.392ZM18.377,7.748c.2,0,.4.013.593.033V5.811a1.91,1.91,0,0,0-1.778-1.937H14.228V1.937A1.91,1.91,0,0,0,12.449,0H6.521A1.91,1.91,0,0,0,4.743,1.937V3.874H1.778A1.91,1.91,0,0,0,0,5.811V9.04H14.64A6.125,6.125,0,0,1,18.377,7.748ZM11.856,3.874H7.114V2.583h4.743Zm.253,9.04h-4.4a.621.621,0,0,1-.593-.646V10.331H0v5.811a1.91,1.91,0,0,0,1.778,1.937h10.8a7.564,7.564,0,0,1-.72-3.228A7.663,7.663,0,0,1,12.109,12.914Z" fill="#fff"/>
</svg>
