<svg xmlns="http://www.w3.org/2000/svg" width="13.247" height="12.684" viewBox="0 0 13.247 12.684">
  <path id="calendar-clear" d="M45.247,34.72a1.854,1.854,0,0,0-1.892-1.812h-.473v-.44a.471.471,0,0,0-.45-.465.485.485,0,0,0-.349.125.444.444,0,0,0-.147.328v.453H35.312v-.44a.471.471,0,0,0-.45-.465.485.485,0,0,0-.349.125.444.444,0,0,0-.147.328v.453h-.473A1.854,1.854,0,0,0,32,34.72v.34a.116.116,0,0,0,.118.113H45.129a.116.116,0,0,0,.118-.113ZM32,42.874a1.854,1.854,0,0,0,1.892,1.812h9.462a1.854,1.854,0,0,0,1.892-1.812V36.192a.116.116,0,0,0-.118-.113H32.118a.116.116,0,0,0-.118.113Z" transform="translate(-32 -32.001)" fill="#20a6ed"/>
</svg>
