<svg xmlns="http://www.w3.org/2000/svg" width="23.713" height="20.513" viewBox="0 0 23.713 20.513">
  <path id="cart-plus" d="M20.778,12.821H8.71L8.979,14.1H20.03a.968.968,0,0,1,.963,1.175l-.227.973a2.24,2.24,0,0,1,1.3,2.019,2.307,2.307,0,0,1-4.61.062,2.206,2.206,0,0,1,.692-1.665H9.517a2.208,2.208,0,0,1,.693,1.6A2.308,2.308,0,0,1,5.6,18.39a2.229,2.229,0,0,1,1.155-2.067L3.865,2.564H.988A.975.975,0,0,1,0,1.6V.962A.975.975,0,0,1,.988,0H5.209a.982.982,0,0,1,.968.769l.377,1.8h16.17a.968.968,0,0,1,.963,1.175l-1.946,8.333A.983.983,0,0,1,20.778,12.821ZM16.8,6.731H14.82v-1.6a.65.65,0,0,0-.659-.641H13.5a.65.65,0,0,0-.659.641v1.6H10.868a.65.65,0,0,0-.659.641v.641a.65.65,0,0,0,.659.641h1.976v1.6a.65.65,0,0,0,.659.641h.659a.65.65,0,0,0,.659-.641v-1.6H16.8a.65.65,0,0,0,.659-.641V7.372A.65.65,0,0,0,16.8,6.731Z" fill="#fff"/>
</svg>
