<svg xmlns="http://www.w3.org/2000/svg" width="24.898" height="26.493" viewBox="0 0 24.898 26.493">
  <path id="cube" d="M11.63,3.4,1.513,7.506A2.533,2.533,0,0,0,0,9.875V21.727a2.555,2.555,0,0,0,1.289,2.259l10.117,5.476a2.161,2.161,0,0,0,2.087,0l10.117-5.476A2.552,2.552,0,0,0,24.9,21.727V9.875a2.525,2.525,0,0,0-1.513-2.364L13.269,3.4A2.131,2.131,0,0,0,11.63,3.4Zm.822,3.27,9.339,3.791v.058l-9.339,4.107L3.113,10.517v-.058Zm1.556,18.744v-7.84L21.79,14.15V21.2Z" transform="translate(0 -3.237)" fill="#fff"/>
</svg>
