<svg xmlns="http://www.w3.org/2000/svg" width="18.9" height="20.49" viewBox="0 0 18.9 20.49">
  <path id="cube" d="M8.828,3.362,1.148,6.538A1.961,1.961,0,0,0,0,8.371v9.167a1.983,1.983,0,0,0,.978,1.747l7.68,4.235a1.614,1.614,0,0,0,1.584,0l7.68-4.235a1.981,1.981,0,0,0,.978-1.747V8.371a1.955,1.955,0,0,0-1.148-1.828l-7.68-3.176A1.59,1.59,0,0,0,8.828,3.362Zm.624,2.529,7.089,2.932v.045L9.452,12.044,2.363,8.868V8.823Zm1.181,14.5V14.325l5.907-2.647V17.13Z" transform="translate(0 -3.237)" fill="#fff"/>
</svg>
