<svg xmlns="http://www.w3.org/2000/svg" width="19.007" height="25.323" viewBox="0 0 19.007 25.323">
  <path id="flask" d="M18.558,19.956l-4.972-9.323V3.165h.339a1.11,1.11,0,0,0,1.018-1.187V1.187A1.11,1.11,0,0,0,13.925,0H5.1A1.11,1.11,0,0,0,4.082,1.187v.791A1.11,1.11,0,0,0,5.1,3.165H5.44v7.468L.467,19.956c-1.243,2.329.191,5.366,2.55,5.366H16.008C18.371,25.323,19.8,22.281,18.558,19.956Zm-12.7-4.13L7.9,11.989a1.751,1.751,0,0,0,.246-.91V3.165h2.715v7.913a1.779,1.779,0,0,0,.246.91l2.045,3.838Z" transform="translate(-0.009)" fill="#fff"/>
</svg>
