<svg xmlns="http://www.w3.org/2000/svg" width="26.061" height="25.242" viewBox="0 0 26.061 25.242">
  <path id="edit" d="M18.215,4.2,22.3,8.645a.513.513,0,0,1,0,.68L12.415,20.1l-4.2.508a.922.922,0,0,1-.973-1.06l.466-4.576L17.591,4.2a.417.417,0,0,1,.624,0Zm7.33-1.129L23.337.662a1.668,1.668,0,0,0-2.5,0l-1.6,1.746a.513.513,0,0,0,0,.68l4.081,4.448a.417.417,0,0,0,.624,0l1.6-1.746A2.053,2.053,0,0,0,25.545,3.068Zm-8.171,14.1v5.02H2.9V6.407h10.4a.534.534,0,0,0,.385-.173l1.81-1.972A.6.6,0,0,0,15.1,3.251H2.172A2.276,2.276,0,0,0,0,5.618V22.975a2.276,2.276,0,0,0,2.172,2.367H18.1a2.276,2.276,0,0,0,2.172-2.367V15.194a.54.54,0,0,0-.928-.419l-1.81,1.972A.635.635,0,0,0,17.374,17.166Z" transform="translate(0 -0.1)" fill="#fff"/>
</svg>
