<svg xmlns="http://www.w3.org/2000/svg" width="16.836" height="14.859" viewBox="0 0 16.836 14.859">
  <path id="edit" d="M11.768,2.512,14.4,5.13a.282.282,0,0,1,0,.4L8.021,11.87l-2.713.3a.567.567,0,0,1-.628-.624l.3-2.694,6.384-6.339a.287.287,0,0,1,.4,0ZM16.5,1.847,15.077.431a1.149,1.149,0,0,0-1.613,0L12.428,1.458a.282.282,0,0,0,0,.4l2.637,2.618a.287.287,0,0,0,.4,0L16.5,3.45a1.13,1.13,0,0,0,0-1.6Zm-5.279,8.3V13.1H1.871V3.812H8.588a.361.361,0,0,0,.248-.1L10.005,2.55a.348.348,0,0,0-.248-.6H1.4A1.4,1.4,0,0,0,0,3.348V13.565a1.4,1.4,0,0,0,1.4,1.393H11.692a1.4,1.4,0,0,0,1.4-1.393V8.985a.352.352,0,0,0-.6-.247L11.327,9.9A.356.356,0,0,0,11.224,10.146Z" transform="translate(0 -0.1)" fill="#153839"/>
</svg>
