<svg xmlns="http://www.w3.org/2000/svg" width="34.594" height="33.507" viewBox="0 0 34.594 33.507">
  <path id="edit" d="M24.18,5.539l5.417,5.9a.681.681,0,0,1,0,.9L16.48,26.642l-5.573.674a1.224,1.224,0,0,1-1.291-1.407l.619-6.074,13.117-14.3a.554.554,0,0,1,.829,0Zm9.73-1.5L30.978.846a2.214,2.214,0,0,0-3.315,0L25.537,3.163a.681.681,0,0,0,0,.9l5.417,5.9a.554.554,0,0,0,.829,0l2.126-2.317A2.726,2.726,0,0,0,33.909,4.04ZM23.063,22.754v6.663H3.844V8.472h13.8a.709.709,0,0,0,.51-.229l2.4-2.618a.8.8,0,0,0-.511-1.342H2.883A3.022,3.022,0,0,0,0,7.425V30.465a3.022,3.022,0,0,0,2.883,3.142H24.024a3.022,3.022,0,0,0,2.883-3.142V20.136a.716.716,0,0,0-1.231-.556l-2.4,2.618A.843.843,0,0,0,23.063,22.754Z" transform="translate(0 -0.1)" fill="#fff"/>
</svg>
