<svg xmlns="http://www.w3.org/2000/svg" width="16.659" height="12.19" viewBox="0 0 16.659 12.19">
  <path id="envelope" d="M16.344,68.025a.2.2,0,0,1,.316.149v6.492A1.544,1.544,0,0,1,15.1,76.19H1.562A1.544,1.544,0,0,1,0,74.667V68.178a.2.2,0,0,1,.316-.149c.729.552,1.7,1.254,5.014,3.606.687.489,1.845,1.517,3,1.511,1.162.01,2.343-1.041,3-1.511C14.652,69.283,15.615,68.578,16.344,68.025Zm-8.014,4.1c.755.013,1.842-.927,2.388-1.314,4.318-3.057,4.646-3.324,5.642-4.086a.753.753,0,0,0,.3-.6v-.6A1.544,1.544,0,0,0,15.1,64H1.562A1.544,1.544,0,0,0,0,65.524v.6a.758.758,0,0,0,.3.6c1,.759,1.324,1.029,5.642,4.086C6.488,71.2,7.575,72.14,8.33,72.127Z" transform="translate(0 -64)" fill="#20a6ed"/>
</svg>
