<svg xmlns="http://www.w3.org/2000/svg" width="23.713" height="23.036" viewBox="0 0 23.713 23.036">
  <path id="gift" d="M1.482,53.39a1.568,1.568,0,0,0,1.482,1.645h7.41V46.809H1.482Zm11.856,1.645h7.41a1.568,1.568,0,0,0,1.482-1.645V46.809H13.338Zm8.892-16.454h-1.95a4.881,4.881,0,0,0,.468-2.057A4.324,4.324,0,0,0,16.673,32c-1.927,0-3.173,1.1-4.77,3.512C10.3,33.1,9.059,32,7.132,32a4.324,4.324,0,0,0-4.076,4.525,4.812,4.812,0,0,0,.468,2.057H1.482A1.568,1.568,0,0,0,0,40.227V44.34a.787.787,0,0,0,.741.823H22.972a.787.787,0,0,0,.741-.823V40.227A1.568,1.568,0,0,0,22.231,38.582Zm-15.1,0a2.068,2.068,0,0,1,0-4.113c.922,0,1.6.17,3.988,4.113Zm9.545,0H12.685c2.381-3.934,3.043-4.113,3.988-4.113a2.068,2.068,0,0,1,0,4.113Z" transform="translate(0 -32)" fill="#fff"/>
</svg>
