<svg xmlns="http://www.w3.org/2000/svg" width="53" height="53" viewBox="0 0 53 53">
  <g id="Group_27" data-name="Group 27" transform="translate(-1688 -958)">
    <circle id="Ellipse_4" data-name="Ellipse 4" cx="26.5" cy="26.5" r="26.5" transform="translate(1688 958)" fill="#20a6ed"/>
    <path id="cog" d="M40.167,22.321l-1.956-1.137a8.966,8.966,0,0,0,0-3.246L40.167,16.8a.56.56,0,0,0,.253-.647,11.534,11.534,0,0,0-2.512-4.374.55.55,0,0,0-.68-.106L35.273,12.81a8.651,8.651,0,0,0-2.792-1.623V8.917a.553.553,0,0,0-.432-.541,11.466,11.466,0,0,0-5.014,0,.553.553,0,0,0-.432.541v2.275a8.924,8.924,0,0,0-2.792,1.623l-1.951-1.137a.543.543,0,0,0-.68.106,11.465,11.465,0,0,0-2.512,4.374.555.555,0,0,0,.253.647l1.956,1.137a8.966,8.966,0,0,0,0,3.246l-1.956,1.137a.56.56,0,0,0-.253.647,11.534,11.534,0,0,0,2.512,4.374.55.55,0,0,0,.68.106l1.956-1.137a8.651,8.651,0,0,0,2.792,1.623v2.275a.553.553,0,0,0,.432.541,11.466,11.466,0,0,0,5.014,0,.553.553,0,0,0,.432-.541V27.938a8.924,8.924,0,0,0,2.792-1.623l1.956,1.137a.543.543,0,0,0,.68-.106,11.464,11.464,0,0,0,2.512-4.374A.573.573,0,0,0,40.167,22.321Zm-10.625.939a3.7,3.7,0,1,1,3.673-3.7A3.691,3.691,0,0,1,29.542,23.259Z" transform="translate(1685.113 964.941)" fill="#fff"/>
  </g>
</svg>
