<svg xmlns="http://www.w3.org/2000/svg" width="7.992" height="11.218" viewBox="0 0 7.992 11.218">
  <path id="rupee-sign" d="M7.692,33.6a.3.3,0,0,0,.3-.3v-1a.3.3,0,0,0-.3-.3H.3a.3.3,0,0,0-.3.3v1.12a.3.3,0,0,0,.3.3h2.13a1.8,1.8,0,0,1,1.523.682H.3a.3.3,0,0,0-.3.3v1a.3.3,0,0,0,.3.3H4.264A1.727,1.727,0,0,1,2.4,37.475H.3a.3.3,0,0,0-.3.3V39.1a.3.3,0,0,0,.1.221l4.122,3.815a.3.3,0,0,0,.2.08H6.484a.3.3,0,0,0,.2-.521L2.919,39.209a3.425,3.425,0,0,0,3.454-3.2H7.692a.3.3,0,0,0,.3-.3v-1a.3.3,0,0,0-.3-.3H6.226a3.434,3.434,0,0,0-.356-.8Z" transform="translate(0 -32)" fill="#149a5c"/>
</svg>
