<svg xmlns="http://www.w3.org/2000/svg" width="20.159" height="21.732" viewBox="0 0 20.159 21.732">
  <path id="book-medical" d="M20.159,15.213V1.087A1.031,1.031,0,0,0,19.007,0H4.32A4.128,4.128,0,0,0,0,4.075V17.658a4.128,4.128,0,0,0,4.32,4.075H19.007a1.106,1.106,0,0,0,1.152-1.087v-.679a1.15,1.15,0,0,0-.432-.815,11.338,11.338,0,0,1,0-3.124.81.81,0,0,0,.432-.815ZM6.48,7.131a.35.35,0,0,1,.36-.34H9.36V4.414a.35.35,0,0,1,.36-.34h2.16a.35.35,0,0,1,.36.34V6.791h2.52a.35.35,0,0,1,.36.34V9.168a.35.35,0,0,1-.36.34H12.24v2.377a.35.35,0,0,1-.36.34H9.72a.35.35,0,0,1-.36-.34V9.508H6.84a.35.35,0,0,1-.36-.34ZM17.136,19.016H4.32a1.323,1.323,0,0,1-1.44-1.358A1.405,1.405,0,0,1,4.32,16.3H17.136Z" fill="#fff"/>
</svg>
