<svg xmlns="http://www.w3.org/2000/svg" width="24.713" height="21.27" viewBox="0 0 24.713 21.27">
  <path id="cogs" d="M19.767,8.069l-.317.6a.461.461,0,0,1-.583.225,4.2,4.2,0,0,1-1.24-.775.546.546,0,0,1-.108-.654l.317-.6a3.675,3.675,0,0,1-.614-1.142h-.637a.489.489,0,0,1-.471-.429,5.064,5.064,0,0,1,0-1.546.493.493,0,0,1,.471-.434h.637a3.675,3.675,0,0,1,.614-1.142l-.317-.6a.541.541,0,0,1,.108-.654,4.254,4.254,0,0,1,1.24-.775A.461.461,0,0,1,19.45.37l.317.6a3.183,3.183,0,0,1,1.224,0l.317-.6a.461.461,0,0,1,.583-.225,4.2,4.2,0,0,1,1.24.775.546.546,0,0,1,.108.654l-.317.6a3.675,3.675,0,0,1,.614,1.142h.637a.489.489,0,0,1,.471.429,5.064,5.064,0,0,1,0,1.546.493.493,0,0,1-.471.434h-.637a3.675,3.675,0,0,1-.614,1.142l.317.6a.541.541,0,0,1-.108.654,4.255,4.255,0,0,1-1.24.775.461.461,0,0,1-.583-.225l-.317-.6A3.183,3.183,0,0,1,19.767,8.069Zm-.405-2.451c1.487,1.234,3.182-.6,2.039-2.2C19.913,2.179,18.218,4.013,19.361,5.618Zm-4.453,6.415,1.3.7a1.041,1.041,0,0,1,.405,1.213A9.957,9.957,0,0,1,14.97,16.69a.877.877,0,0,1-1.17.221l-1.124-.7a6.534,6.534,0,0,1-2.12,1.321v1.4a.98.98,0,0,1-.761.984,8.055,8.055,0,0,1-2.931,0,.982.982,0,0,1-.772-.984v-1.4a6.606,6.606,0,0,1-2.12-1.321l-1.124.7a.878.878,0,0,1-1.17-.221,9.95,9.95,0,0,1-1.63-2.739,1.045,1.045,0,0,1,.405-1.213l1.286-.7a7.785,7.785,0,0,1,0-2.643l-1.286-.7A1.032,1.032,0,0,1,.049,7.477a9.911,9.911,0,0,1,1.63-2.743.877.877,0,0,1,1.17-.221l1.124.7a6.534,6.534,0,0,1,2.12-1.321v-1.4a.975.975,0,0,1,.757-.98,8.168,8.168,0,0,1,2.935,0,.982.982,0,0,1,.772.984v1.4a6.606,6.606,0,0,1,2.12,1.321l1.124-.7a.878.878,0,0,1,1.17.221A9.9,9.9,0,0,1,16.6,7.473a1.037,1.037,0,0,1-.386,1.213l-1.3.7A7.81,7.81,0,0,1,14.909,12.033Zm-4.541.88C12.653,9.7,9.259,6.039,6.286,8.507,4,11.717,7.394,15.381,10.367,12.913Zm9.4,7.616-.317.6a.461.461,0,0,1-.583.225,4.2,4.2,0,0,1-1.24-.775.546.546,0,0,1-.108-.654l.317-.6a3.675,3.675,0,0,1-.614-1.142h-.637a.489.489,0,0,1-.471-.429,5.064,5.064,0,0,1,0-1.546.493.493,0,0,1,.471-.434h.637a3.675,3.675,0,0,1,.614-1.142l-.317-.6a.541.541,0,0,1,.108-.654,4.254,4.254,0,0,1,1.24-.775.461.461,0,0,1,.583.225l.317.6a3.183,3.183,0,0,1,1.224,0l.317-.6a.461.461,0,0,1,.583-.225,4.2,4.2,0,0,1,1.24.775.546.546,0,0,1,.108.654l-.317.6a3.675,3.675,0,0,1,.614,1.142h.637a.489.489,0,0,1,.471.429,5.064,5.064,0,0,1,0,1.546.493.493,0,0,1-.471.434h-.637a3.675,3.675,0,0,1-.614,1.142l.317.6a.541.541,0,0,1-.108.654,4.255,4.255,0,0,1-1.24.775.461.461,0,0,1-.583-.225l-.317-.6A3.183,3.183,0,0,1,19.767,20.529Zm-.405-2.455c1.487,1.234,3.182-.6,2.039-2.2-1.487-1.234-3.182.6-2.039,2.2Z" transform="translate(0.009 -0.112)" fill="#fff"/>
</svg>
