<svg xmlns="http://www.w3.org/2000/svg" width="18.372" height="16.952" viewBox="0 0 18.372 16.952">
  <path id="edit" d="M12.841,2.852l2.877,2.987a.333.333,0,0,1,0,.457L8.752,13.529l-2.96.341a.633.633,0,0,1-.686-.712l.329-3.073L12.4,2.852a.3.3,0,0,1,.44,0Zm5.167-.758L16.451.478a1.215,1.215,0,0,0-1.761,0L13.562,1.65a.333.333,0,0,0,0,.457l2.877,2.987a.3.3,0,0,0,.44,0l1.129-1.172a1.331,1.331,0,0,0,0-1.828Zm-5.76,9.468v3.371H2.041V4.336H9.371a.385.385,0,0,0,.271-.116L10.918,2.9a.4.4,0,0,0-.271-.679H1.531A1.562,1.562,0,0,0,0,3.806V15.463a1.562,1.562,0,0,0,1.531,1.59H12.758a1.562,1.562,0,0,0,1.531-1.59V10.237a.382.382,0,0,0-.654-.281L12.359,11.28A.415.415,0,0,0,12.248,11.562Z" transform="translate(0 -0.1)" fill="#153839"/>
</svg>
