<svg xmlns="http://www.w3.org/2000/svg" width="13.125" height="12.363" viewBox="0 0 13.125 12.363">
  <path id="info-circle" d="M14.562,8A6.381,6.381,0,0,0,8,14.182a6.38,6.38,0,0,0,6.562,6.182,6.38,6.38,0,0,0,6.562-6.182A6.381,6.381,0,0,0,14.562,8Zm0,2.742a1.049,1.049,0,1,1-1.111,1.047A1.081,1.081,0,0,1,14.562,10.742Zm1.482,6.331a.309.309,0,0,1-.318.3H13.4a.309.309,0,0,1-.318-.3v-.6a.309.309,0,0,1,.318-.3h.318v-1.6H13.4a.309.309,0,0,1-.318-.3v-.6a.309.309,0,0,1,.318-.3h1.693a.309.309,0,0,1,.318.3v2.493h.318a.309.309,0,0,1,.318.3Z" transform="translate(-8 -8)"/>
</svg>
