<svg xmlns="http://www.w3.org/2000/svg" width="7.027" height="9.53" viewBox="0 0 7.027 9.53">
  <path id="rupee-sign" d="M6.763,33.361a.259.259,0,0,0,.264-.255v-.851A.259.259,0,0,0,6.763,32H.264A.259.259,0,0,0,0,32.255v.952a.259.259,0,0,0,.264.255H2.136a1.605,1.605,0,0,1,1.339.58H.264A.259.259,0,0,0,0,34.3v.851a.259.259,0,0,0,.264.255H3.75a1.507,1.507,0,0,1-1.642,1.247H.264A.259.259,0,0,0,0,36.906v1.128a.252.252,0,0,0,.085.188l3.624,3.241a.268.268,0,0,0,.179.068H5.7a.254.254,0,0,0,.179-.443L2.566,38.124A2.971,2.971,0,0,0,5.6,35.4h1.16a.259.259,0,0,0,.264-.255V34.3a.259.259,0,0,0-.264-.255H5.475a2.869,2.869,0,0,0-.313-.681Z" transform="translate(0 -32)" fill="#fff"/>
</svg>
